<svg width="60" height="60" viewBox="0 0 60 60" fill="none" xmlns="http://www.w3.org/2000/svg">
<g clip-path="url(#clip0_4589_19080)">
<g clip-path="url(#clip1_4589_19080)">
<g filter="url(#filter0_ii_4589_19080)">
<path d="M28.2164 0.956006C29.0584 -0.318994 30.9424 -0.318994 31.7844 0.956006L31.8894 1.11601C32.0609 1.37399 32.2864 1.59172 32.5502 1.75418C32.814 1.91663 33.1099 2.01996 33.4175 2.05703C33.725 2.0941 34.037 2.06403 34.3319 1.9689C34.6267 1.87378 34.8974 1.71585 35.1254 1.50601L35.2654 1.37601C36.3904 0.338006 38.2184 0.786006 38.7294 2.22301L38.7934 2.40501C38.8984 2.69626 39.0654 2.96125 39.2828 3.18168C39.5003 3.40211 39.7629 3.57274 40.0527 3.68179C40.3425 3.79084 40.6525 3.83571 40.9613 3.8133C41.2701 3.79089 41.5704 3.70174 41.8414 3.55201L42.0084 3.46001C43.3504 2.72001 45.0184 3.58701 45.1674 5.10401L45.1864 5.29801C45.3144 6.60301 46.5944 7.47901 47.8684 7.13501L48.0544 7.08501C49.5364 6.68501 50.9444 7.92401 50.7244 9.43201L50.6954 9.62701C50.5054 10.924 51.5364 12.078 52.8564 12.047L53.0514 12.043C54.5864 12.007 55.6554 13.543 55.0774 14.955L55.0024 15.14C54.8861 15.4259 54.8339 15.7339 54.8493 16.0422C54.8648 16.3504 54.9476 16.6516 55.0919 16.9245C55.2362 17.1973 55.4385 17.4353 55.6846 17.6216C55.9307 17.808 56.2146 17.9381 56.5164 18.003L56.7094 18.045C58.2074 18.375 58.8754 20.12 57.9744 21.353L57.8554 21.516C57.6736 21.7651 57.5487 22.0509 57.4894 22.3535C57.4302 22.6561 57.438 22.968 57.5124 23.2672C57.5867 23.5664 57.7259 23.8457 57.9199 24.0853C58.1139 24.3249 58.3582 24.519 58.6354 24.654L58.8154 24.742C59.1317 24.896 59.4045 25.1267 59.6088 25.4132C59.8131 25.6996 59.9425 26.0326 59.9852 26.3818C60.0278 26.7311 59.9824 27.0855 59.853 27.4126C59.7236 27.7398 59.5144 28.0294 59.2444 28.255L59.0904 28.384C58.8538 28.5817 58.6636 28.8288 58.5331 29.1081C58.4025 29.3873 58.3348 29.6918 58.3348 30C58.3348 30.3082 58.4025 30.6127 58.5331 30.892C58.6636 31.1712 58.8538 31.4183 59.0904 31.616L59.2444 31.746C59.5141 31.9717 59.7231 32.2613 59.8523 32.5884C59.9814 32.9155 60.0267 33.2698 59.984 33.6189C59.9412 33.968 59.8118 34.3008 59.6075 34.5871C59.4033 34.8734 59.1306 35.104 58.8144 35.258L58.6344 35.346C58.3572 35.4811 58.1131 35.6753 57.9192 35.9149C57.7252 36.1546 57.5862 36.4339 57.512 36.7331C57.4377 37.0323 57.4299 37.3441 57.4893 37.6467C57.5486 37.9492 57.6736 38.235 57.8554 38.484L57.9744 38.647C58.8744 39.88 58.2074 41.625 56.7094 41.955L56.5164 41.998C56.2147 42.0629 55.9309 42.1931 55.6849 42.3793C55.4389 42.5656 55.2367 42.8034 55.0924 43.0762C54.9481 43.3489 54.8653 43.65 54.8498 43.9581C54.8342 44.2663 54.8863 44.5741 55.0024 44.86L55.0774 45.045C55.6554 46.456 54.5864 47.993 53.0514 47.957L52.8564 47.952C51.5364 47.922 50.5064 49.076 50.6964 50.372L50.7244 50.568C50.9444 52.076 49.5364 53.315 48.0544 52.915L47.8684 52.865C46.5944 52.521 45.3144 53.397 45.1864 54.702L45.1664 54.896C45.0184 56.413 43.3504 57.281 42.0084 56.54L41.8414 56.448C41.5704 56.2983 41.2701 56.2091 40.9613 56.1867C40.6525 56.1643 40.3425 56.2092 40.0527 56.3182C39.7629 56.4273 39.5003 56.5979 39.2828 56.8183C39.0654 57.0388 38.8984 57.3038 38.7934 57.595L38.7294 57.776C38.2194 59.214 36.3894 59.662 35.2654 58.623L35.1254 58.495C34.8974 58.2852 34.6267 58.1272 34.3319 58.0321C34.037 57.937 33.725 57.9069 33.4175 57.944C33.1099 57.9811 32.814 58.0844 32.5502 58.2468C32.2864 58.4093 32.0609 58.627 31.8894 58.885L31.7844 59.044C30.9424 60.319 29.0584 60.319 28.2164 59.044L28.1114 58.884C27.9398 58.626 27.7144 58.4083 27.4506 58.2458C27.1868 58.0834 26.8909 57.9801 26.5833 57.943C26.2757 57.9059 25.9637 57.936 25.6689 58.0311C25.374 58.1262 25.1033 58.2842 24.8754 58.494L24.7354 58.624C23.6104 59.662 21.7824 59.214 21.2714 57.776L21.2074 57.596C21.1024 57.3047 20.9355 57.0396 20.7181 56.819C20.5007 56.5985 20.2381 56.4278 19.9483 56.3186C19.6585 56.2095 19.3485 56.1645 19.0396 56.1868C18.7308 56.2092 18.4304 56.2983 18.1594 56.448L17.9924 56.54C16.6504 57.28 14.9824 56.413 14.8334 54.896L14.8144 54.702C14.6864 53.397 13.4064 52.521 12.1324 52.865L11.9464 52.915C10.4644 53.315 9.05636 52.076 9.27636 50.568L9.30536 50.373C9.49536 49.076 8.46437 47.922 7.14436 47.953L6.94936 47.957C5.41436 47.993 4.34536 46.457 4.92236 45.045L4.99836 44.86C5.11445 44.5741 5.16654 44.2663 5.15098 43.9581C5.13542 43.65 5.0526 43.3489 4.90831 43.0762C4.76403 42.8034 4.56179 42.5656 4.3158 42.3793C4.0698 42.1931 3.78602 42.0629 3.48436 41.998L3.29136 41.955C1.79336 41.625 1.12536 39.88 2.02636 38.647L2.14536 38.484C2.32712 38.235 2.45204 37.9491 2.5113 37.6465C2.57057 37.3439 2.56273 37.032 2.48836 36.7328C2.41398 36.4336 2.27487 36.1543 2.08084 35.9147C1.88681 35.6751 1.64258 35.481 1.36536 35.346L1.18536 35.258C0.869015 35.104 0.596242 34.8733 0.391911 34.5869C0.187581 34.3004 0.0581941 33.9674 0.015545 33.6182C-0.0271041 33.2689 0.0183415 32.9146 0.147739 32.5874C0.277137 32.2602 0.48637 31.9706 0.756365 31.745L0.910365 31.616C1.14689 31.4183 1.33713 31.1712 1.46768 30.892C1.59823 30.6127 1.66589 30.3082 1.66589 30C1.66589 29.6918 1.59823 29.3873 1.46768 29.1081C1.33713 28.8288 1.14689 28.5817 0.910365 28.384L0.756365 28.254C0.486631 28.0283 0.277654 27.7387 0.148472 27.4116C0.0192893 27.0845 -0.0259932 26.7302 0.0167494 26.3811C0.0594919 26.032 0.188901 25.6992 0.393188 25.4129C0.597475 25.1266 0.870147 24.896 1.18636 24.742L1.36636 24.654C1.6435 24.5189 1.88763 24.3247 2.08156 24.0851C2.27549 23.8454 2.41449 23.5662 2.48877 23.2669C2.56305 22.9677 2.5708 22.6559 2.51146 22.3534C2.45213 22.0508 2.32716 21.765 2.14536 21.516L2.02636 21.353C1.12636 20.12 1.79336 18.375 3.29136 18.045L3.48436 18.002C3.78602 17.9371 4.0698 17.8069 4.3158 17.6207C4.56179 17.4344 4.76403 17.1966 4.90831 16.9238C5.0526 16.6511 5.13542 16.3501 5.15098 16.0419C5.16654 15.7337 5.11445 15.4259 4.99836 15.14L4.92236 14.955C4.34536 13.543 5.41436 12.007 6.94936 12.043L7.14436 12.048C8.46437 12.078 9.49436 10.924 9.30436 9.62801L9.27636 9.43201C9.05636 7.92401 10.4644 6.68501 11.9464 7.08501L12.1324 7.13501C13.4064 7.47901 14.6864 6.60301 14.8144 5.29801L14.8344 5.10401C14.9824 3.58701 16.6504 2.71901 17.9924 3.46001L18.1594 3.55201C19.3144 4.18901 20.7694 3.64201 21.2074 2.40501L21.2714 2.22301C21.7814 0.785006 23.6114 0.338006 24.7354 1.37701L24.8754 1.50501C25.1033 1.71485 25.374 1.87278 25.6689 1.9679C25.9637 2.06303 26.2757 2.0931 26.5833 2.05603C26.8909 2.01896 27.1868 1.91563 27.4506 1.75318C27.7144 1.59072 27.9398 1.37299 28.1114 1.11501L28.2164 0.956006Z" fill="url(#paint0_linear_4589_19080)"/>
</g>
</g>
</g>
<rect x="6" y="6" width="48" height="48" rx="24" fill="#222E3A" fill-opacity="0.25"/>
<path d="M24.5984 30.1725C23.6787 30.1725 22.8596 30.0144 22.141 29.6982C21.4266 29.3779 20.862 28.9386 20.4473 28.3802C20.0367 27.8177 19.8252 27.1689 19.8129 26.4339H22.4982C22.5146 26.7419 22.6152 27.0129 22.8 27.2469C22.9889 27.4769 23.2394 27.6555 23.5514 27.7828C23.8635 27.91 24.2145 27.9737 24.6046 27.9737C25.0111 27.9737 25.3704 27.9018 25.6824 27.7581C25.9945 27.6144 26.2388 27.4153 26.4153 27.1607C26.5919 26.9061 26.6802 26.6125 26.6802 26.28C26.6802 25.9433 26.5857 25.6456 26.3969 25.3869C26.2121 25.1241 25.9452 24.9188 25.5962 24.771C25.2513 24.6232 24.8407 24.5493 24.3644 24.5493H23.188V22.5907H24.3644C24.7668 22.5907 25.122 22.5209 25.4299 22.3813C25.742 22.2417 25.9842 22.0487 26.1567 21.8024C26.3291 21.5519 26.4153 21.2604 26.4153 20.9278C26.4153 20.6116 26.3394 20.3345 26.1875 20.0963C26.0396 19.8541 25.8302 19.6652 25.5592 19.5297C25.2924 19.3942 24.9803 19.3264 24.6231 19.3264C24.2618 19.3264 23.9312 19.3921 23.6315 19.5235C23.3317 19.6508 23.0915 19.8335 22.9109 20.0717C22.7302 20.3098 22.6337 20.589 22.6214 20.9093H20.0654C20.0777 20.1826 20.2851 19.542 20.6875 18.9877C21.0899 18.4334 21.6319 18.0002 22.3135 17.6882C22.9992 17.372 23.7731 17.2139 24.6354 17.2139C25.5059 17.2139 26.2675 17.372 26.9204 17.6882C27.5732 18.0043 28.0803 18.4313 28.4417 18.9692C28.8071 19.503 28.9878 20.1025 28.9837 20.7677C28.9878 21.4739 28.7681 22.0631 28.3246 22.5353C27.8853 23.0075 27.3125 23.3072 26.6063 23.4345V23.533C27.5342 23.6521 28.2405 23.9744 28.725 24.5C29.2136 25.0215 29.4558 25.6743 29.4517 26.4586C29.4558 27.1771 29.2485 27.8156 28.8297 28.374C28.415 28.9324 27.8422 29.3718 27.1113 29.692C26.3804 30.0123 25.5428 30.1725 24.5984 30.1725ZM35.3144 30.2772C34.2551 30.273 33.3435 30.0123 32.5798 29.495C31.8202 28.9776 31.2351 28.2283 30.8245 27.2469C30.418 26.2656 30.2168 25.0851 30.2209 23.7055C30.2209 22.33 30.4242 21.1577 30.8307 20.1887C31.2413 19.2197 31.8264 18.4827 32.586 17.9776C33.3497 17.4685 34.2592 17.2139 35.3144 17.2139C36.3696 17.2139 37.2771 17.4685 38.0367 17.9776C38.8004 18.4868 39.3876 19.2259 39.7982 20.1949C40.2088 21.1598 40.412 22.33 40.4079 23.7055C40.4079 25.0892 40.2026 26.2718 39.792 27.2531C39.3855 28.2344 38.8025 28.9838 38.0428 29.5011C37.2832 30.0185 36.3738 30.2772 35.3144 30.2772ZM35.3144 28.0661C36.0371 28.0661 36.614 27.7027 37.0451 26.9759C37.4762 26.2492 37.6897 25.159 37.6856 23.7055C37.6856 22.7488 37.5871 21.9522 37.39 21.3158C37.197 20.6794 36.9219 20.201 36.5647 19.8808C36.2116 19.5605 35.7948 19.4004 35.3144 19.4004C34.5959 19.4004 34.021 19.7596 33.5899 20.4782C33.1588 21.1967 32.9411 22.2725 32.937 23.7055C32.937 24.6745 33.0335 25.4834 33.2265 26.1321C33.4236 26.7768 33.7007 27.2613 34.058 27.5857C34.4152 27.9059 34.834 28.0661 35.3144 28.0661Z" fill="white"/>
<path d="M22.4833 43H19.5829V34.8182H22.5073C23.3303 34.8182 24.0387 34.982 24.6327 35.3096C25.2266 35.6345 25.6833 36.1019 26.0029 36.7118C26.3252 37.3217 26.4863 38.0515 26.4863 38.9011C26.4863 39.7534 26.3252 40.4858 26.0029 41.0984C25.6833 41.7109 25.2239 42.181 24.6247 42.5086C24.0281 42.8362 23.3143 43 22.4833 43ZM21.3128 41.5178H22.4114C22.9228 41.5178 23.3529 41.4273 23.7018 41.2462C24.0534 41.0624 24.317 40.7788 24.4928 40.3952C24.6713 40.0091 24.7605 39.511 24.7605 38.9011C24.7605 38.2965 24.6713 37.8025 24.4928 37.4189C24.317 37.0354 24.0547 36.7531 23.7058 36.572C23.3569 36.3909 22.9268 36.3003 22.4154 36.3003H21.3128V41.5178ZM28.2166 43H26.3629L29.1874 34.8182H31.4166L34.2371 43H32.3834L30.3339 36.6879H30.27L28.2166 43ZM28.1007 39.784H32.4793V41.1343H28.1007V39.784ZM33.4075 34.8182H35.3451L37.2108 38.3418H37.2907L39.1563 34.8182H41.0939L38.1096 40.1076V43H36.3918V40.1076L33.4075 34.8182Z" fill="white"/>
<defs>
<filter id="filter0_ii_4589_19080" x="-2" y="-2.00024" width="64.0005" height="64.0005" filterUnits="userSpaceOnUse" color-interpolation-filters="sRGB">
<feFlood flood-opacity="0" result="BackgroundImageFix"/>
<feBlend mode="normal" in="SourceGraphic" in2="BackgroundImageFix" result="shape"/>
<feColorMatrix in="SourceAlpha" type="matrix" values="0 0 0 0 0 0 0 0 0 0 0 0 0 0 0 0 0 0 127 0" result="hardAlpha"/>
<feOffset dx="-2" dy="-2"/>
<feGaussianBlur stdDeviation="2"/>
<feComposite in2="hardAlpha" operator="arithmetic" k2="-1" k3="1"/>
<feColorMatrix type="matrix" values="0 0 0 0 1 0 0 0 0 0.298039 0 0 0 0 0.392157 0 0 0 0.75 0"/>
<feBlend mode="normal" in2="shape" result="effect1_innerShadow_4589_19080"/>
<feColorMatrix in="SourceAlpha" type="matrix" values="0 0 0 0 0 0 0 0 0 0 0 0 0 0 0 0 0 0 127 0" result="hardAlpha"/>
<feOffset dx="2" dy="2"/>
<feGaussianBlur stdDeviation="2"/>
<feComposite in2="hardAlpha" operator="arithmetic" k2="-1" k3="1"/>
<feColorMatrix type="matrix" values="0 0 0 0 1 0 0 0 0 1 0 0 0 0 1 0 0 0 0.25 0"/>
<feBlend mode="normal" in2="effect1_innerShadow_4589_19080" result="effect2_innerShadow_4589_19080"/>
</filter>
<linearGradient id="paint0_linear_4589_19080" x1="52.5004" y1="7.00001" x2="8.89037" y2="53.615" gradientUnits="userSpaceOnUse">
<stop stop-color="#FF4C64" stop-opacity="0.75"/>
<stop offset="1" stop-color="#FF4C64"/>
</linearGradient>
<clipPath id="clip0_4589_19080">
<rect width="60" height="60" fill="white"/>
</clipPath>
<clipPath id="clip1_4589_19080">
<rect width="60" height="60" fill="white"/>
</clipPath>
</defs>
</svg>
