<svg width="147" height="28" viewBox="0 0 147 28" fill="none" xmlns="http://www.w3.org/2000/svg">
<path d="M10.16 27.324C8.144 27.324 6.404 26.928 4.94 26.136C3.5 25.32 2.408 24.276 1.664 23.004C0.92 21.732 0.548 20.388 0.548 18.972V18.756H6.02V18.972C6.02 19.572 6.164 20.184 6.452 20.808C6.764 21.408 7.232 21.912 7.856 22.32C8.504 22.728 9.296 22.932 10.232 22.932C11.408 22.932 12.356 22.632 13.076 22.032C13.82 21.432 14.192 20.628 14.192 19.62C14.192 18.756 13.88 18.072 13.256 17.568C12.656 17.04 11.912 16.692 11.024 16.524L7.964 15.876C6.38 15.564 4.856 14.892 3.392 13.86C1.928 12.804 1.196 11.088 1.196 8.712C1.196 7.176 1.568 5.856 2.312 4.752C3.056 3.624 4.088 2.772 5.408 2.196C6.728 1.596 8.228 1.296 9.908 1.296C11.828 1.296 13.472 1.668 14.84 2.412C16.232 3.156 17.276 4.116 17.972 5.292C18.692 6.468 19.052 7.716 19.052 9.036V9.18H13.58V9.072C13.58 8.208 13.268 7.404 12.644 6.66C12.044 5.892 11.072 5.508 9.728 5.508C8.624 5.508 7.76 5.808 7.136 6.408C6.512 6.984 6.2 7.728 6.2 8.64C6.2 9.504 6.512 10.188 7.136 10.692C7.784 11.196 8.576 11.544 9.512 11.736L12.536 12.384C14.384 12.792 15.992 13.548 17.36 14.652C18.728 15.756 19.412 17.376 19.412 19.512C19.412 21.048 19.016 22.416 18.224 23.616C17.432 24.792 16.328 25.704 14.912 26.352C13.52 27 11.936 27.324 10.16 27.324ZM29.5106 27.288C27.1586 27.288 25.3226 26.388 24.0026 24.588C22.6826 22.788 22.0226 20.412 22.0226 17.46C22.0226 14.46 22.6826 12.06 24.0026 10.26C25.3466 8.436 27.2186 7.524 29.6186 7.524C31.2266 7.524 32.4866 7.896 33.3986 8.64C34.3106 9.36 34.9586 10.128 35.3426 10.944H35.6306V7.992H40.6346V27H35.6306V23.724H35.3426C34.9106 24.612 34.2386 25.428 33.3266 26.172C32.4146 26.916 31.1426 27.288 29.5106 27.288ZM31.3466 23.256C32.7626 23.256 33.8306 22.68 34.5506 21.528C35.2706 20.376 35.6306 18.996 35.6306 17.388C35.6306 15.78 35.2706 14.412 34.5506 13.284C33.8546 12.156 32.7866 11.592 31.3466 11.592C29.9066 11.592 28.8386 12.156 28.1426 13.284C27.4466 14.412 27.0986 15.78 27.0986 17.388C27.0986 19.02 27.4466 20.412 28.1426 21.564C28.8386 22.692 29.9066 23.256 31.3466 23.256ZM54.1053 3.888C53.3613 3.888 52.8093 4.044 52.4493 4.356C52.1133 4.644 51.8973 5.004 51.8013 5.436C51.7293 5.844 51.6933 6.396 51.6933 7.092V7.992H55.9413V11.88H51.6933V27H46.7253V11.88H44.3133V7.992H46.7253V6.084C46.7253 4.62 47.1213 3.312 47.9133 2.16C48.7053 0.983999 50.3133 0.395999 52.7373 0.395999C53.3373 0.395999 53.9613 0.431999 54.6093 0.503998C55.2813 0.575998 55.7253 0.659999 55.9413 0.755999V4.032C55.3653 3.936 54.7533 3.888 54.1053 3.888ZM66.5011 27.288C64.5091 27.288 62.8291 26.832 61.4611 25.92C60.0931 24.984 59.0731 23.772 58.4011 22.284C57.7531 20.772 57.4291 19.152 57.4291 17.424C57.4291 15.696 57.7531 14.088 58.4011 12.6C59.0731 11.088 60.0931 9.864 61.4611 8.928C62.8291 7.992 64.5211 7.524 66.5371 7.524C69.2011 7.524 71.3131 8.376 72.8731 10.08C74.4571 11.784 75.2491 14.244 75.2491 17.46V18.828H62.2171V19.116C62.2171 20.268 62.6131 21.264 63.4051 22.104C64.1971 22.92 65.1931 23.328 66.3931 23.328C67.3291 23.328 68.1211 23.112 68.7691 22.68C69.4171 22.248 69.8851 21.66 70.1731 20.916H75.0691C74.5651 22.788 73.5811 24.324 72.1171 25.524C70.6531 26.7 68.7811 27.288 66.5011 27.288ZM70.4611 15.588C70.4131 14.076 70.0291 12.96 69.3091 12.24C68.5891 11.52 67.6411 11.16 66.4651 11.16C65.2171 11.16 64.2331 11.556 63.5131 12.348C62.7931 13.14 62.4091 14.22 62.3611 15.588H70.4611ZM87.8553 27.324C85.8393 27.324 84.0993 26.928 82.6353 26.136C81.1953 25.32 80.1033 24.276 79.3593 23.004C78.6153 21.732 78.2433 20.388 78.2433 18.972V18.756H83.7153V18.972C83.7153 19.572 83.8593 20.184 84.1473 20.808C84.4593 21.408 84.9273 21.912 85.5513 22.32C86.1993 22.728 86.9913 22.932 87.9273 22.932C89.1033 22.932 90.0513 22.632 90.7713 22.032C91.5153 21.432 91.8873 20.628 91.8873 19.62C91.8873 18.756 91.5753 18.072 90.9513 17.568C90.3513 17.04 89.6073 16.692 88.7193 16.524L85.6593 15.876C84.0753 15.564 82.5513 14.892 81.0873 13.86C79.6233 12.804 78.8913 11.088 78.8913 8.712C78.8913 7.176 79.2633 5.856 80.0073 4.752C80.7513 3.624 81.7833 2.772 83.1033 2.196C84.4233 1.596 85.9233 1.296 87.6033 1.296C89.5233 1.296 91.1673 1.668 92.5353 2.412C93.9273 3.156 94.9713 4.116 95.6673 5.292C96.3873 6.468 96.7473 7.716 96.7473 9.036V9.18H91.2753V9.072C91.2753 8.208 90.9633 7.404 90.3393 6.66C89.7393 5.892 88.7673 5.508 87.4233 5.508C86.3193 5.508 85.4553 5.808 84.8313 6.408C84.2073 6.984 83.8953 7.728 83.8953 8.64C83.8953 9.504 84.2073 10.188 84.8313 10.692C85.4793 11.196 86.2713 11.544 87.2073 11.736L90.2313 12.384C92.0793 12.792 93.6873 13.548 95.0553 14.652C96.4233 15.756 97.1073 17.376 97.1073 19.512C97.1073 21.048 96.7113 22.416 95.9193 23.616C95.1273 24.792 94.0233 25.704 92.6073 26.352C91.2153 27 89.6313 27.324 87.8553 27.324ZM117.754 27H112.75V23.976H112.498C112.066 24.912 111.382 25.716 110.446 26.388C109.534 27.036 108.406 27.36 107.062 27.36C104.638 27.36 102.934 26.568 101.95 24.984C100.966 23.376 100.474 21.576 100.474 19.584V7.992H105.442V18.756C105.442 20.124 105.754 21.216 106.378 22.032C107.002 22.824 107.89 23.22 109.042 23.22C110.29 23.22 111.214 22.8 111.814 21.96C112.438 21.12 112.75 20.052 112.75 18.756V7.992H117.754V27ZM121.887 7.992H126.819V11.016H127.071C127.383 10.176 127.959 9.468 128.799 8.892C129.639 8.292 130.719 7.992 132.039 7.992C132.543 7.992 132.975 8.04 133.335 8.136L133.119 12.708C132.519 12.54 131.883 12.456 131.211 12.456C129.723 12.456 128.619 12.852 127.899 13.644C127.179 14.412 126.819 15.696 126.819 17.496V27H121.887V7.992ZM144.773 3.888C144.029 3.888 143.477 4.044 143.117 4.356C142.781 4.644 142.565 5.004 142.469 5.436C142.397 5.844 142.361 6.396 142.361 7.092V7.992H146.609V11.88H142.361V27H137.393V11.88H134.981V7.992H137.393V6.084C137.393 4.62 137.789 3.312 138.581 2.16C139.373 0.983999 140.981 0.395999 143.405 0.395999C144.005 0.395999 144.629 0.431999 145.277 0.503998C145.949 0.575998 146.393 0.659999 146.609 0.755999V4.032C146.033 3.936 145.421 3.888 144.773 3.888Z" fill="#242643"/>
</svg>
